# xmcd
#
# Track frame offsets:
#	183
#	14698
#	27783
#	46750
#	66538
#	86340
#	104740
#	128785
#	146853
#	171845
#	187978
#	221015
#
# Disc length: 3286 seconds
#
# Revision: 1
# Processed by: cddbd v1.5.2PL0 Copyright (c) Steve Scherf et al.
# Submitted via: audiograbber 1.83.01
#
DISCID=af0cd40c
DTITLE=Glen Delpit and The Subterraneans - Glen Delpit and The Subterraneans
DYEAR=1992
DGENRE=
TTITLE0=A Little Bit of Love
TTITLE1=Goin' Straight
TTITLE2=Light In August
TTITLE3=Won't Let You Down
TTITLE4=Rainmaker
TTITLE5=The Lonely Ones
TTITLE6=You Know My Name
TTITLE7=Hold On Tight
TTITLE8=Long Distance Operator
TTITLE9=Five Flights Up
TTITLE10=Clear Blue Sky
TTITLE11=A Little Bit of Love
EXTD=
EXTT0=
EXTT1=
EXTT2=
EXTT3=
EXTT4=
EXTT5=
EXTT6=
EXTT7=
EXTT8=
EXTT9=
EXTT10=
EXTT11=
PLAYORDER=
